<mxfile host="app.diagrams.net" agent="Mozilla/5.0 (Windows NT 10.0; Win64; x64) AppleWebKit/537.36 (KHTML, like Gecko) Chrome/140.0.0.0 Safari/537.36 Edg/140.0.0.0" version="28.2.4">
  <diagram name="Page-1" id="nWW1mkWAmAwHkVcjgsHd">
    <mxGraphModel dx="596" dy="403" grid="0" gridSize="10" guides="1" tooltips="1" connect="1" arrows="1" fold="1" page="1" pageScale="1" pageWidth="850" pageHeight="1100" math="0" shadow="0">
      <root>
        <mxCell id="0" />
        <mxCell id="1" parent="0" />
        <mxCell id="MKesJpe5QqgGn7iSRR93-1" value="Contact" style="swimlane;fontStyle=0;align=center;verticalAlign=top;childLayout=stackLayout;horizontal=1;startSize=55;horizontalStack=0;resizeParent=1;resizeParentMax=0;resizeLast=0;collapsible=0;marginBottom=0;html=1;whiteSpace=wrap;" vertex="1" parent="1">
          <mxGeometry x="360" y="210" width="200" height="170" as="geometry" />
        </mxCell>
        <mxCell id="MKesJpe5QqgGn7iSRR93-2" value="attributes" style="text;html=1;strokeColor=none;fillColor=none;align=center;verticalAlign=middle;spacingLeft=4;spacingRight=4;overflow=hidden;rotatable=0;points=[[0,0.5],[1,0.5]];portConstraint=eastwest;whiteSpace=wrap;" vertex="1" parent="MKesJpe5QqgGn7iSRR93-1">
          <mxGeometry y="55" width="200" height="20" as="geometry" />
        </mxCell>
        <mxCell id="MKesJpe5QqgGn7iSRR93-3" value="ID: int (PK, auto increment)&lt;br&gt;userId: int {FK â†’ User.ID}&lt;br&gt;firstName: varchar(50)&lt;br&gt;lastName: varchar(50)&lt;br&gt;email: varchar(50)&lt;br&gt;phone: varchar(50)" style="text;html=1;strokeColor=none;fillColor=none;align=left;verticalAlign=middle;spacingLeft=4;spacingRight=4;overflow=hidden;rotatable=0;points=[[0,0.5],[1,0.5]];portConstraint=eastwest;whiteSpace=wrap;" vertex="1" parent="MKesJpe5QqgGn7iSRR93-1">
          <mxGeometry y="75" width="200" height="95" as="geometry" />
        </mxCell>
        <mxCell id="MKesJpe5QqgGn7iSRR93-29" value="User" style="swimlane;fontStyle=0;align=center;verticalAlign=top;childLayout=stackLayout;horizontal=1;startSize=30;horizontalStack=0;resizeParent=1;resizeParentMax=0;resizeLast=0;collapsible=0;marginBottom=0;html=1;whiteSpace=wrap;" vertex="1" parent="1">
          <mxGeometry x="80" y="210" width="180" height="140" as="geometry" />
        </mxCell>
        <mxCell id="MKesJpe5QqgGn7iSRR93-30" value="attributes" style="text;html=1;strokeColor=none;fillColor=none;align=center;verticalAlign=middle;spacingLeft=4;spacingRight=4;overflow=hidden;rotatable=0;points=[[0,0.5],[1,0.5]];portConstraint=eastwest;whiteSpace=wrap;" vertex="1" parent="MKesJpe5QqgGn7iSRR93-29">
          <mxGeometry y="30" width="180" height="20" as="geometry" />
        </mxCell>
        <mxCell id="MKesJpe5QqgGn7iSRR93-31" value="&lt;div&gt;ID: int (PK, auto increment)&lt;/div&gt;&lt;div&gt;firstName: varchar(50)&lt;/div&gt;&lt;div&gt;lastName: varchar(50)&lt;/div&gt;&lt;div&gt;login: varchar(50)&lt;/div&gt;&lt;div&gt;password: varchar(50)&lt;/div&gt;&lt;div&gt;&lt;br&gt;&lt;/div&gt;" style="text;html=1;strokeColor=none;fillColor=none;align=left;verticalAlign=middle;spacingLeft=4;spacingRight=4;overflow=hidden;rotatable=0;points=[[0,0.5],[1,0.5]];portConstraint=eastwest;whiteSpace=wrap;" vertex="1" parent="MKesJpe5QqgGn7iSRR93-29">
          <mxGeometry y="50" width="180" height="90" as="geometry" />
        </mxCell>
        <mxCell id="MKesJpe5QqgGn7iSRR93-38" value="" style="edgeStyle=entityRelationEdgeStyle;fontSize=12;html=1;endArrow=ERoneToMany;rounded=0;exitX=0.995;exitY=0.083;exitDx=0;exitDy=0;exitPerimeter=0;entryX=-0.006;entryY=0.272;entryDx=0;entryDy=0;entryPerimeter=0;" edge="1" parent="1" source="MKesJpe5QqgGn7iSRR93-31" target="MKesJpe5QqgGn7iSRR93-3">
          <mxGeometry width="100" height="100" relative="1" as="geometry">
            <mxPoint x="240" y="360" as="sourcePoint" />
            <mxPoint x="340" y="260" as="targetPoint" />
          </mxGeometry>
        </mxCell>
      </root>
    </mxGraphModel>
  </diagram>
</mxfile>
